<?xml version="1.0" encoding="UTF-8"?>
<svg xmlns="http://www.w3.org/2000/svg" xmlns:xlink="http://www.w3.org/1999/xlink" width="1181px" height="250px" viewBox="0 0 1181 250" version="1.1">
<g id="surface1">
<path style=" stroke:none;fill-rule:nonzero;fill:rgb(100%,100%,100%);fill-opacity:1;" d="M 501.589844 222.59375 L 481.082031 102.527344 L 461.46875 222.59375 L 435.613281 222.59375 L 405.894531 24.363281 L 435.613281 24.363281 L 450.472656 142.945312 L 469.195312 24.363281 L 493.863281 24.363281 L 513.476562 142.945312 L 528.632812 24.363281 L 557.460938 24.363281 L 527.445312 222.59375 Z M 501.589844 222.59375 "/>
<path style=" stroke:none;fill-rule:nonzero;fill:rgb(100%,100%,100%);fill-opacity:1;" d="M 604.417969 222.59375 L 577.667969 222.59375 L 577.667969 74.886719 L 604.417969 74.886719 Z M 604.417969 51.113281 L 577.667969 51.113281 L 577.667969 24.363281 L 604.417969 24.363281 Z M 604.417969 51.113281 "/>
<path style=" stroke:none;fill-rule:nonzero;fill:rgb(100%,100%,100%);fill-opacity:1;" d="M 654.046875 131.652344 L 681.386719 74.886719 L 708.433594 74.886719 L 681.683594 124.222656 L 710.808594 222.59375 L 684.65625 222.59375 L 665.933594 153.941406 L 654.046875 175.339844 L 654.046875 222.59375 L 627.300781 222.59375 L 627.300781 24.363281 L 654.046875 24.363281 Z M 654.046875 131.652344 "/>
<path style=" stroke:none;fill-rule:nonzero;fill:rgb(100%,100%,100%);fill-opacity:1;" d="M 754.496094 222.59375 L 727.75 222.59375 L 727.75 74.886719 L 754.496094 74.886719 Z M 754.496094 51.113281 L 727.75 51.113281 L 727.75 24.363281 L 754.496094 24.363281 Z M 754.496094 51.113281 "/>
<path style=" stroke:none;fill-rule:nonzero;fill:rgb(100%,100%,100%);fill-opacity:1;" d="M 835.628906 99.257812 L 813.339844 99.257812 L 813.339844 172.664062 C 813.339844 177.816406 813.535156 181.976562 813.933594 185.148438 C 814.328125 188.316406 815.023438 190.894531 816.011719 192.875 C 817.203125 194.855469 818.6875 196.242188 820.472656 197.035156 C 822.453125 197.628906 824.832031 197.925781 827.605469 197.925781 C 829.785156 197.925781 832.457031 197.53125 835.628906 196.738281 L 835.628906 222 C 831.664062 222.988281 828.199219 223.683594 825.226562 224.078125 C 822.453125 224.476562 819.578125 224.675781 816.609375 224.675781 C 806.105469 224.675781 798.28125 221.007812 793.128906 213.679688 C 791.742188 211.894531 790.652344 210.113281 789.859375 208.328125 C 789.070312 206.546875 788.375 204.5625 787.78125 202.382812 C 787.382812 200.203125 787.085938 197.628906 786.890625 194.65625 C 786.691406 191.488281 786.59375 187.625 786.59375 183.066406 L 786.59375 99.257812 L 770.246094 99.257812 L 770.246094 74.886719 L 786.59375 74.886719 L 786.59375 34.46875 L 813.339844 34.46875 L 813.339844 74.886719 L 835.628906 74.886719 Z M 835.628906 99.257812 "/>
<path style=" stroke:none;fill-rule:nonzero;fill:rgb(100%,100%,100%);fill-opacity:1;" d="M 926.863281 222.59375 L 900.117188 222.59375 L 900.117188 206.546875 C 896.949219 209.914062 894.074219 212.785156 891.5 215.164062 C 888.921875 217.542969 886.445312 219.421875 884.070312 220.8125 C 881.691406 222.199219 879.316406 223.1875 876.9375 223.78125 C 874.558594 224.378906 872.082031 224.675781 869.507812 224.675781 C 862.96875 224.675781 858.015625 222.394531 854.648438 217.839844 C 852.667969 215.066406 851.378906 211.894531 850.785156 208.328125 C 850.191406 204.761719 849.894531 198.621094 849.894531 189.902344 L 849.894531 74.886719 L 876.640625 74.886719 L 876.640625 183.660156 C 876.640625 188.019531 876.640625 190.894531 876.640625 192.28125 C 876.839844 193.667969 877.136719 194.855469 877.53125 195.847656 C 878.125 198.816406 880.007812 200.304688 883.179688 200.304688 C 888.527344 200.304688 894.175781 196.144531 900.117188 187.820312 L 900.117188 74.886719 L 926.863281 74.886719 Z M 926.863281 222.59375 "/>
<path style=" stroke:none;fill-rule:nonzero;fill:rgb(100%,100%,100%);fill-opacity:1;" d="M 976.792969 89.152344 C 981.746094 83.207031 986.300781 79.046875 990.460938 76.671875 C 994.625 74.09375 999.277344 72.808594 1004.429688 72.808594 C 1013.347656 72.808594 1019.785156 76.769531 1023.746094 84.695312 C 1024.738281 86.675781 1025.53125 88.65625 1026.125 90.640625 C 1026.71875 92.621094 1027.214844 94.898438 1027.609375 97.472656 C 1028.007812 100.050781 1028.207031 103.121094 1028.207031 106.6875 C 1028.402344 110.054688 1028.503906 114.214844 1028.503906 119.167969 L 1028.503906 178.3125 C 1028.503906 183.265625 1028.402344 187.523438 1028.207031 191.089844 C 1028.207031 194.460938 1028.007812 197.429688 1027.609375 200.007812 C 1027.214844 202.582031 1026.71875 204.859375 1026.125 206.84375 C 1025.53125 208.824219 1024.738281 210.804688 1023.746094 212.785156 C 1019.785156 220.710938 1013.347656 224.675781 1004.429688 224.675781 C 999.277344 224.675781 994.625 223.484375 990.460938 221.109375 C 986.300781 218.53125 981.746094 214.273438 976.792969 208.328125 L 976.792969 222.59375 L 950.046875 222.59375 L 950.046875 24.363281 L 976.792969 24.363281 Z M 976.792969 193.765625 C 981.347656 198.125 985.808594 200.304688 990.164062 200.304688 C 994.921875 200.304688 998.089844 198.519531 999.675781 194.953125 C 1000.667969 193.171875 1001.261719 191.289062 1001.457031 189.308594 C 1001.65625 187.328125 1001.757812 183.761719 1001.757812 178.609375 L 1001.757812 118.871094 C 1001.757812 113.722656 1001.65625 110.15625 1001.457031 108.171875 C 1001.261719 105.992188 1000.664062 104.113281 999.675781 102.527344 C 998.089844 98.960938 994.921875 97.175781 990.164062 97.175781 C 985.808594 97.175781 981.347656 99.355469 976.792969 103.714844 Z M 976.792969 193.765625 "/>
<path style=" stroke:none;fill-rule:nonzero;fill:rgb(100%,100%,100%);fill-opacity:1;" d="M 1077.242188 222.59375 L 1050.496094 222.59375 L 1050.496094 74.886719 L 1077.242188 74.886719 Z M 1077.242188 51.113281 L 1050.496094 51.113281 L 1050.496094 24.363281 L 1077.242188 24.363281 Z M 1077.242188 51.113281 "/>
<path style=" stroke:none;fill-rule:nonzero;fill:rgb(100%,100%,100%);fill-opacity:1;" d="M 1154.511719 222.59375 C 1154.113281 220.8125 1153.816406 219.324219 1153.617188 218.136719 C 1153.617188 216.75 1153.519531 215.558594 1153.320312 214.570312 C 1153.125 213.378906 1152.925781 212.191406 1152.726562 211.003906 C 1152.726562 209.617188 1152.628906 207.933594 1152.429688 205.949219 C 1141.730469 218.433594 1131.429688 224.675781 1121.523438 224.675781 C 1114.191406 224.675781 1108.347656 221.503906 1103.988281 215.164062 C 1099.628906 208.824219 1097.449219 200.304688 1097.449219 189.605469 C 1097.449219 183.265625 1098.242188 177.617188 1099.828125 172.664062 C 1101.414062 167.511719 1104.1875 162.558594 1108.148438 157.804688 C 1112.308594 153.050781 1117.855469 148.292969 1124.792969 143.539062 C 1131.925781 138.585938 1140.9375 133.039062 1151.835938 126.898438 L 1151.835938 117.386719 C 1151.835938 109.261719 1151.042969 103.914062 1149.457031 101.335938 C 1148.070312 98.5625 1145.199219 97.175781 1140.839844 97.175781 C 1136.679688 97.175781 1133.609375 98.761719 1131.625 101.933594 C 1129.84375 104.902344 1128.753906 110.054688 1128.359375 117.386719 L 1101.015625 117.386719 C 1102.007812 103.121094 1106.167969 92.125 1113.5 84.398438 C 1120.828125 76.671875 1130.734375 72.808594 1143.21875 72.808594 C 1149.359375 72.808594 1154.808594 73.898438 1159.5625 76.074219 C 1164.515625 78.253906 1168.378906 81.425781 1171.152344 85.585938 C 1174.125 89.550781 1176.105469 93.90625 1177.097656 98.664062 C 1178.085938 103.21875 1178.582031 110.453125 1178.582031 120.359375 L 1178.582031 169.097656 C 1178.582031 177.617188 1178.582031 184.554688 1178.582031 189.902344 C 1178.78125 195.054688 1178.878906 199.511719 1178.878906 203.277344 C 1179.078125 206.84375 1179.375 210.011719 1179.769531 212.785156 C 1180.167969 215.558594 1180.664062 218.828125 1181.257812 222.59375 Z M 1151.835938 147.402344 C 1142.128906 153.546875 1135.191406 159.488281 1131.03125 165.234375 C 1127.070312 170.78125 1125.089844 177.320312 1125.089844 184.851562 C 1125.089844 189.605469 1125.882812 193.371094 1127.464844 196.144531 C 1129.25 198.917969 1131.527344 200.304688 1134.300781 200.304688 C 1140.640625 200.304688 1146.484375 195.746094 1151.835938 186.632812 Z M 1151.835938 147.402344 "/>
<path style=" stroke:none;fill-rule:nonzero;fill:rgb(100%,0%,0%);fill-opacity:1;" d="M 348.429688 38.941406 C 344.277344 23.59375 332.304688 11.570312 316.953125 7.464844 C 296.335938 -0.492188 96.625 -4.394531 38.691406 7.695312 C 23.34375 11.847656 11.324219 23.820312 7.21875 39.171875 C -2.089844 80 -2.796875 168.269531 7.445312 210.007812 C 11.597656 225.359375 23.570312 237.378906 38.921875 241.484375 C 79.746094 250.882812 273.847656 252.207031 317.179688 241.484375 C 332.53125 237.335938 344.550781 225.359375 348.65625 210.007812 C 358.578125 165.53125 359.285156 82.734375 348.429688 38.941406 Z M 348.429688 38.941406 "/>
<path style=" stroke:none;fill-rule:nonzero;fill:rgb(100%,100%,100%);fill-opacity:1;" d="M 224.285156 122.835938 L 157.378906 55.898438 C 157.035156 55.554688 156.59375 55.320312 156.113281 55.222656 C 155.632812 55.128906 155.136719 55.179688 154.6875 55.367188 C 154.234375 55.554688 153.851562 55.871094 153.578125 56.277344 C 153.308594 56.683594 153.160156 57.160156 153.160156 57.652344 L 153.160156 113.933594 L 132.902344 93.667969 C 132.554688 93.320312 132.117188 93.085938 131.636719 92.992188 C 131.15625 92.898438 130.660156 92.945312 130.210938 93.132812 C 129.757812 93.320312 129.371094 93.636719 129.101562 94.042969 C 128.828125 94.449219 128.683594 94.929688 128.683594 95.417969 L 128.683594 153.539062 C 128.683594 155.355469 129.039062 157.152344 129.734375 158.832031 C 130.429688 160.507812 131.449219 162.035156 132.734375 163.316406 L 159.097656 189.71875 C 161.691406 192.3125 165.207031 193.769531 168.871094 193.773438 L 188.160156 193.773438 C 191.824219 193.773438 195.339844 192.316406 197.929688 189.722656 L 224.289062 163.320312 C 225.570312 162.039062 226.589844 160.511719 227.28125 158.835938 C 227.976562 157.160156 228.332031 155.359375 228.328125 153.546875 L 228.328125 132.621094 C 228.332031 130.804688 227.972656 129.007812 227.28125 127.328125 C 226.585938 125.648438 225.566406 124.121094 224.285156 122.835938 Z M 224.285156 122.835938 "/>
<path style=" stroke:none;fill-rule:nonzero;fill:rgb(100%,0%,0%);fill-opacity:1;" d="M 203.875 147.316406 C 203.875 148.414062 203.441406 149.46875 202.667969 150.246094 L 181.414062 171.605469 C 181.03125 171.996094 180.574219 172.300781 180.066406 172.511719 C 179.5625 172.722656 179.023438 172.832031 178.476562 172.832031 C 177.929688 172.832031 177.386719 172.722656 176.882812 172.511719 C 176.378906 172.300781 175.921875 171.996094 175.535156 171.605469 L 154.351562 150.246094 C 153.578125 149.472656 153.140625 148.421875 153.140625 147.328125 L 153.140625 139.199219 C 153.140625 138.65625 153.246094 138.117188 153.457031 137.613281 C 153.664062 137.109375 153.972656 136.652344 154.359375 136.269531 L 161.984375 128.636719 C 162.367188 128.25 162.824219 127.945312 163.328125 127.734375 C 163.832031 127.527344 164.371094 127.417969 164.917969 127.417969 C 165.460938 127.417969 166 127.527344 166.503906 127.734375 C 167.007812 127.945312 167.464844 128.25 167.851562 128.636719 L 178.515625 139.316406 L 189.167969 128.632812 C 189.550781 128.246094 190.007812 127.941406 190.511719 127.734375 C 191.015625 127.523438 191.554688 127.414062 192.097656 127.414062 C 192.644531 127.414062 193.183594 127.523438 193.6875 127.734375 C 194.191406 127.941406 194.648438 128.246094 195.03125 128.632812 L 202.660156 136.265625 C 203.042969 136.652344 203.351562 137.109375 203.558594 137.609375 C 203.765625 138.113281 203.875 138.652344 203.875 139.195312 Z M 203.875 147.316406 "/>
</g>
</svg>
